<svg width="19" height="20" viewBox="0 0 19 20" fill="none" xmlns="http://www.w3.org/2000/svg">
<path d="M11.8068 3.84615C11.8068 3.23412 11.5635 2.64732 11.1308 2.21454C10.698 1.78186 10.1111 1.53846 9.49915 1.53846C8.88722 1.53854 8.30025 1.78184 7.86754 2.21454C7.43486 2.64731 7.19146 3.23419 7.19146 3.84615V5.12821H11.8068V3.84615ZM11.8068 8.97436V6.66667H7.19146V8.97436C7.19146 9.39919 6.84707 9.74359 6.42223 9.74359C5.99753 9.74343 5.653 9.39909 5.653 8.97436V6.66667H3.68485C3.50019 6.66667 3.31781 6.7068 3.15 6.78385C2.98222 6.86096 2.8326 6.97331 2.7123 7.11338C2.59199 7.25359 2.50267 7.41852 2.45188 7.59615C2.40115 7.77372 2.38983 7.96049 2.41782 8.14303L3.70488 16.5044C3.78867 17.0492 4.06478 17.5467 4.48313 17.9056C4.90141 18.2644 5.43445 18.4615 5.98553 18.4615H13.0138C13.5649 18.4616 14.0978 18.2644 14.5162 17.9056C14.9347 17.5467 15.2116 17.0494 15.2954 16.5044L16.5825 8.14303C16.6105 7.96051 16.5982 7.7737 16.5474 7.59615C16.4966 7.41858 16.4083 7.25355 16.288 7.11338C16.1677 6.97323 16.0182 6.86099 15.8503 6.78385C15.7243 6.72593 15.59 6.6885 15.4527 6.67368L15.3145 6.66667H13.3453V8.97436C13.3453 9.39919 13.0009 9.74359 12.5761 9.74359C12.1514 9.74343 11.8068 9.39909 11.8068 8.97436ZM13.3453 5.12821H15.3145C15.721 5.12816 16.123 5.21595 16.4923 5.38562C16.8619 5.55543 17.1911 5.80315 17.4559 6.11178C17.7206 6.42028 17.9151 6.78264 18.0268 7.17348C18.1385 7.56449 18.1647 7.97547 18.1029 8.3774L16.8159 16.7388C16.6761 17.6469 16.2152 18.4753 15.5178 19.0735C14.8205 19.6714 13.9323 20.0001 13.0138 20H5.98553C5.06683 19.9999 4.17876 19.6707 3.48153 19.0725C2.78437 18.4743 2.32416 17.6467 2.18445 16.7388L0.897392 8.3774C0.835578 7.97546 0.860797 7.5645 0.972512 7.17348C1.08424 6.78257 1.27967 6.42033 1.54443 6.11178C1.80922 5.80324 2.13753 5.55539 2.50697 5.38562C2.87639 5.21585 3.2783 5.12821 3.68485 5.12821H5.653V3.84615C5.653 2.82616 6.0586 1.84808 6.7798 1.1268C7.50103 0.405579 8.4792 7.87399e-05 9.49915 0C10.5192 0 11.4982 0.405509 12.2195 1.1268C12.9406 1.84806 13.3453 2.82626 13.3453 3.84615V5.12821Z" fill="black"/>
</svg>
