<svg width="21" height="21" viewBox="0 0 21 21" fill="none" xmlns="http://www.w3.org/2000/svg">
<path d="M15.6631 13.5746C15.983 13.5752 16.2996 13.6417 16.5938 13.7701C16.7373 13.8328 16.8738 13.9108 17.002 14.0005C17.1312 13.9106 17.2694 13.8337 17.4141 13.7711C17.7088 13.6437 18.0257 13.5789 18.3457 13.5796C18.6656 13.5803 18.9822 13.6465 19.2764 13.7751C19.5702 13.9036 19.8355 14.0919 20.0566 14.3276C20.5022 14.8021 20.751 15.4345 20.75 16.0919C20.7489 16.7493 20.4989 17.3812 20.0518 17.8542L20.0488 17.8571L17.5303 20.4921C17.3889 20.6398 17.1954 20.7237 16.9932 20.7235C16.7906 20.7231 16.596 20.6386 16.4551 20.4901L13.9453 17.8452L13.9424 17.8422C13.4972 17.3677 13.2489 16.7351 13.25 16.0779C13.2512 15.4209 13.5016 14.7895 13.9482 14.3166C14.1704 14.0815 14.4369 13.8946 14.7314 13.7671C15.0261 13.6396 15.343 13.5741 15.6631 13.5746ZM17.7061 15.3878L17.5381 15.5633C17.397 15.7108 17.2039 15.7947 17.002 15.7947C16.8 15.7947 16.6069 15.7108 16.4658 15.5633L16.2979 15.3878L16.292 15.3828C16.2103 15.2958 16.1124 15.2257 16.0039 15.1783C15.8954 15.131 15.7781 15.1067 15.6602 15.1065C15.5422 15.1064 15.425 15.1303 15.3164 15.1773C15.2078 15.2244 15.1102 15.2941 15.0283 15.3808H15.0273C14.8499 15.5688 14.7504 15.8198 14.75 16.0809C14.7496 16.3407 14.8473 16.5908 15.0225 16.779L16.9951 18.8575L18.9756 16.787C19.1514 16.5994 19.2495 16.3497 19.25 16.0899C19.2504 15.861 19.1748 15.6397 19.0371 15.4616L18.9746 15.3878C18.893 15.3006 18.7941 15.2308 18.6855 15.1833C18.5772 15.136 18.4606 15.1118 18.3428 15.1115C18.2247 15.1113 18.1077 15.1354 17.999 15.1823C17.8904 15.2293 17.7919 15.2981 17.71 15.3848L17.707 15.3878H17.7061ZM6.95898 12.7877C7.246 12.4828 7.7209 12.4737 8.01953 12.7668C8.30913 13.051 8.65493 13.2692 9.0332 13.4071C9.4113 13.5448 9.81371 13.5993 10.2139 13.5667L10.291 13.5637C10.671 13.572 10.9905 13.8735 11.0215 14.2688C11.0545 14.6904 10.7468 15.0597 10.334 15.0936L10.1045 15.1055C9.5689 15.1203 9.03418 15.0346 8.52832 14.8502C7.95032 14.6395 7.42298 14.3051 6.98047 13.8708C6.6819 13.5777 6.67201 13.0927 6.95898 12.7877ZM18.25 10.2555C18.2499 8.54968 17.743 6.88352 16.7959 5.47835C15.8489 4.07324 14.5064 2.99482 12.9463 2.38564C11.3861 1.77647 9.68102 1.66495 8.05762 2.0665C6.43432 2.46808 4.9688 3.36395 3.85449 4.63461C2.74015 5.90531 2.02994 7.49147 1.81738 9.18341C1.60486 10.8753 1.8999 12.5934 2.66406 14.1102C3.42825 15.627 4.62517 16.8716 6.09668 17.6786C7.56816 18.4856 9.24516 18.8172 10.9053 18.6301L10.9824 18.6251C11.3625 18.6217 11.6908 18.9131 11.7334 19.3073C11.7789 19.7277 11.482 20.1066 11.0703 20.153L10.7021 20.1869C8.86146 20.3226 7.01807 19.922 5.3877 19.028C3.64853 18.0743 2.23325 16.604 1.33008 14.8113C0.426978 13.0188 0.0780171 10.9884 0.329102 8.98893C0.580275 6.98931 1.42032 5.11413 2.73731 3.61235C4.05426 2.11071 5.78661 1.05303 7.70508 0.578491C9.62349 0.103985 11.6377 0.234698 13.4814 0.954483C15.3252 1.67438 16.912 2.94914 18.0312 4.60968C19.1505 6.27033 19.7499 8.23952 19.75 10.2555C19.7498 10.6784 19.4141 11.0215 19 11.0215C18.5859 11.0215 18.2502 10.6784 18.25 10.2555ZM7.00977 7.44707C7.42398 7.44707 7.75977 7.78999 7.75977 8.21301C7.75955 8.63585 7.42385 8.97896 7.00977 8.97896H7C6.58592 8.97896 6.25021 8.63585 6.25 8.21301C6.25 7.78999 6.58579 7.44707 7 7.44707H7.00977ZM13.0098 7.44707C13.424 7.44707 13.7598 7.78999 13.7598 8.21301C13.7596 8.63585 13.4238 8.97896 13.0098 8.97896H13C12.5859 8.97896 12.2502 8.63585 12.25 8.21301C12.25 7.78999 12.5858 7.44707 13 7.44707H13.0098Z" fill="black"/>
</svg>
