<svg width="18" height="18" viewBox="0 0 18 18" fill="none" xmlns="http://www.w3.org/2000/svg">
<path d="M16 7.56445C15.9999 7.04703 15.7907 6.5552 15.4258 6.19727L15.2598 6.05176L9.92676 1.90332C9.63248 1.67439 9.27846 1.53762 8.90918 1.50684L8.75 1.5C8.37706 1.5 8.01355 1.60897 7.70312 1.81152L7.57324 1.90332V1.9043L2.23926 6.05176C2.00895 6.23088 1.82247 6.46053 1.69434 6.72266C1.56626 6.98475 1.49986 7.27274 1.5 7.56445V14.7646L1.50586 14.8887C1.53433 15.1747 1.66121 15.4434 1.86621 15.6484C2.10063 15.8829 2.41848 16.0146 2.75 16.0146H14.75C15.0815 16.0146 15.3994 15.8829 15.6338 15.6484C15.8682 15.414 16 15.0961 16 14.7646V7.56445ZM4.07812 11.3623C4.29215 11.0078 4.75285 10.8935 5.10742 11.1074C6.06789 11.6873 7.37318 11.999 8.71875 11.999C10.0644 11.999 11.3713 11.6875 12.333 11.1074L12.7197 11.75L13.1074 12.3916C11.8592 13.1445 10.2686 13.499 8.71875 13.499C7.16913 13.499 5.57932 13.1446 4.33203 12.3916C3.9777 12.1774 3.86414 11.7168 4.07812 11.3623ZM12.333 11.1074C12.6876 10.8938 13.1484 11.0077 13.3623 11.3623C13.5762 11.7169 13.4619 12.1776 13.1074 12.3916L12.333 11.1074ZM17.5 14.7646C17.5 15.494 17.21 16.1933 16.6943 16.709C16.1786 17.2247 15.4793 17.5146 14.75 17.5146H2.75C2.02066 17.5146 1.32139 17.2247 0.805664 16.709C0.354341 16.2576 0.0760955 15.6658 0.013672 15.0361L1.30394e-07 14.7646V7.56445C-0.000143427 7.04432 0.118251 6.53077 0.34668 6.06348C0.575139 5.59616 0.907785 5.18754 1.31836 4.86816L6.65234 0.719727L6.88379 0.554688C7.43713 0.193774 8.0853 0 8.75 0L9.0332 0.0117188C9.69183 0.0665007 10.3228 0.311426 10.8477 0.719727L16.1797 4.86719L16.332 4.99316C17.0718 5.6396 17.4999 6.57605 17.5 7.56445V14.7646Z" fill="#1B1F26" fill-opacity="0.72"/>
</svg>
