<svg width="20" height="20" viewBox="0 0 20 20" fill="none" xmlns="http://www.w3.org/2000/svg">
<path d="M14.359 13.8462H5.64103V17.1795L5.64704 17.3067C5.67627 17.6 5.80636 17.8757 6.01663 18.0859C6.25706 18.3264 6.58306 18.4615 6.92308 18.4615H13.0769C13.4169 18.4615 13.7429 18.3264 13.9834 18.0859C14.2238 17.8455 14.359 17.5195 14.359 17.1795V13.8462ZM18.4615 3.58974H16.1538C14.7258 3.58974 13.3566 4.15746 12.3468 5.16727C11.3369 6.17708 10.7692 7.54627 10.7692 8.97436V9.23077H13.0769C14.505 9.23077 15.8742 8.66306 16.884 7.65324C17.8938 6.64343 18.4615 5.27424 18.4615 3.84615V3.58974ZM20 3.84615C20 5.68227 19.2711 7.44366 17.9728 8.74199C16.6744 10.0403 14.913 10.7692 13.0769 10.7692H10.7692V12.3077H15.1282C15.553 12.3077 15.8974 12.6521 15.8974 13.0769V17.1795C15.8974 17.9275 15.6001 18.6447 15.0711 19.1737C14.5422 19.7026 13.825 20 13.0769 20H6.92308C6.17503 20 5.45783 19.7026 4.92889 19.1737C4.39994 18.6447 4.10256 17.9275 4.10256 17.1795V13.0769C4.10256 12.6521 4.44696 12.3077 4.87179 12.3077H9.23077V9.74359H6.92308C5.08696 9.74359 3.32557 9.01467 2.02724 7.71635C0.728915 6.41802 0 4.65663 0 2.82051V0.769231C0 0.344396 0.344396 0 0.769231 0H3.84615C5.68227 0 7.44366 0.728915 8.74199 2.02724C9.57395 2.85921 10.1703 3.88205 10.4928 4.99199C10.7203 4.66863 10.9747 4.36185 11.258 4.07853C12.5563 2.7802 14.3177 2.05128 16.1538 2.05128H19.2308L19.3099 2.05529C19.6976 2.0949 20 2.42239 20 2.82051V3.84615ZM1.54547 3.08794C1.6116 4.41865 2.16939 5.68101 3.11599 6.6276C4.1258 7.63741 5.49499 8.20513 6.92308 8.20513H9.23077V6.92308C9.23077 5.49499 8.66306 4.1258 7.65324 3.11599C6.70665 2.16939 5.4443 1.6116 4.11358 1.54547L3.84615 1.53846H1.53846V2.82051L1.54547 3.08794Z" fill="black"/>
</svg>
