<svg width="20" height="19" viewBox="0 0 20 19" fill="none" xmlns="http://www.w3.org/2000/svg">
<path d="M18.4615 8.98633C18.4615 8.91823 18.4345 8.85295 18.3864 8.8048C18.3383 8.75664 18.2731 8.72957 18.2051 8.72957H3.1881C3.12257 8.73879 3.05806 8.73683 2.99479 8.72957H1.79487C1.72687 8.72957 1.66167 8.75664 1.61358 8.8048C1.5655 8.85295 1.53846 8.91824 1.53846 8.98633V9.49985C1.53846 9.72987 1.63807 10.158 1.87901 10.7506C2.11042 11.3197 2.44153 11.9682 2.82953 12.6111C3.62751 13.9333 4.57636 15.0828 5.27945 15.5227C5.5043 15.6635 5.64103 15.9101 5.64103 16.1756V17.2027C5.64103 17.2708 5.66806 17.3361 5.71615 17.3842C5.76423 17.4324 5.82943 17.4594 5.89744 17.4594H14.1026C14.1706 17.4594 14.2358 17.4324 14.2839 17.3842C14.3319 17.3361 14.359 17.2708 14.359 17.2027V16.1756C14.359 15.9101 14.4957 15.6635 14.7206 15.5227C14.995 15.3509 15.379 14.9869 15.8193 14.4555C16.2484 13.9377 16.6932 13.3076 17.0954 12.6542C17.4979 12.0002 17.8485 11.3373 18.096 10.7566C18.3551 10.1485 18.4615 9.71981 18.4615 9.49985V8.98633ZM14.8658 3.59436C12.7557 3.59436 11.3431 4.05112 10.4127 4.73975C10.556 4.8434 10.6917 4.95898 10.8183 5.08578C11.3827 5.65093 11.7229 6.39771 11.7839 7.18901H16.0857C16.2812 6.36722 16.3471 5.37955 16.4103 4.11891V3.59436H14.8658ZM8.46154 5.64844C8.13426 5.64844 7.81727 5.73973 7.54107 5.9052C7.52854 5.91231 7.5169 5.92088 7.50401 5.92727C7.39236 5.99786 7.28736 6.08003 7.19251 6.175C6.91703 6.45086 6.74278 6.8074 6.6877 7.18901H10.2354C10.1803 6.8074 10.0061 6.45086 9.73057 6.175C9.39397 5.83794 8.93757 5.64844 8.46154 5.64844ZM3.58974 5.88715C3.60919 6.32348 3.65528 6.75785 3.72296 7.18901H5.13922C5.18009 6.65855 5.34547 6.14779 5.62099 5.69859C5.31352 5.66584 4.98043 5.64844 4.62039 5.64844H3.58974V5.88715ZM6.82292 4.34258C6.91008 4.36323 6.99601 4.38441 7.08033 4.40777C7.50995 4.21192 7.98041 4.10788 8.46154 4.10788C8.57206 4.10788 8.68204 4.11309 8.79107 4.12393C9.04927 3.85392 9.33659 3.60777 9.65545 3.38775L7.41186 1.98359L6.82292 4.34258ZM20 9.49985C20 10.0502 19.7837 10.7221 19.5112 11.3614C19.2272 12.0279 18.8374 12.7593 18.4044 13.4626C17.9712 14.1664 17.4858 14.8571 17.0032 15.4395C16.6477 15.8685 16.2698 16.267 15.8974 16.5678V17.2027C15.8974 17.6794 15.7082 18.1364 15.3716 18.4734C15.035 18.8105 14.5786 19 14.1026 19H5.89744C5.42141 19 4.96501 18.8105 4.62841 18.4734C4.2918 18.1364 4.10256 17.6794 4.10256 17.2027V16.5718C3.18411 15.8542 2.23824 14.6084 1.51342 13.4074C1.0923 12.7096 0.722116 11.9889 0.454728 11.3313C0.196782 10.6969 0 10.0401 0 9.49985V8.98633C0 8.50965 0.189238 8.05263 0.525841 7.71557C0.862445 7.3785 1.31884 7.18901 1.79487 7.18901H2.16747C2.11006 6.77428 2.07039 6.35695 2.05228 5.9383C2.05181 5.92727 2.05128 5.91625 2.05128 5.9052V4.87816L2.05529 4.79893C2.0949 4.41074 2.42239 4.10788 2.82051 4.10788H4.62039C4.85057 4.10788 5.07431 4.11445 5.29147 4.12694L6.17688 0.583439L6.20393 0.495177C6.2797 0.296308 6.43597 0.136563 6.63562 0.0558756C6.86381 -0.0362329 7.12208 -0.0135267 7.33073 0.117057L11.273 2.58437C12.2786 2.23782 13.4728 2.05379 14.8658 2.05379H17.1795L17.2586 2.05781C17.6463 2.09747 17.9487 2.42541 17.9487 2.82408V4.14499C17.9487 4.1577 17.9483 4.17041 17.9477 4.1831C17.8939 5.25933 17.8367 6.27073 17.6593 7.18901H18.2051C18.6812 7.18901 19.1376 7.3785 19.4742 7.71557C19.8108 8.05263 20 8.50965 20 8.98633V9.49985Z" fill="black"/>
</svg>
